<svg xmlns="http://www.w3.org/2000/svg" xmlns:xlink="http://www.w3.org/1999/xlink" version="1.1" width="256" height="256" viewBox="0 0 256 256" xml:space="preserve">

<defs>
</defs>
<g style="stroke: none; stroke-width: 0; stroke-dasharray: none; stroke-linecap: butt; stroke-linejoin: miter; stroke-miterlimit: 10; fill: none; fill-rule: nonzero; opacity: 1;" transform="translate(1.4065934065934016 1.4065934065934016) scale(2.81 2.81)" >
	<path d="M 71.078 27.194 h -0.401 C 69.892 14.847 59.474 4.961 47.008 4.961 h -4.015 c -12.466 0 -22.885 9.886 -23.669 22.233 h -0.401 C 8.489 27.194 0 35.683 0 46.117 c 0 10.434 8.489 18.922 18.922 18.922 h 16.162 c 0.552 0 1 -0.447 1 -1 s -0.448 -1 -1 -1 H 18.922 C 9.591 63.039 2 55.447 2 46.116 c 0 -9.331 7.591 -16.922 16.922 -16.922 h 1.359 c 0.544 0 0.988 -0.435 1 -0.978 c 0.257 -11.72 9.997 -21.255 21.711 -21.255 h 4.015 c 11.714 0 21.454 9.535 21.711 21.255 c 0.012 0.543 0.456 0.978 1 0.978 h 1.359 C 80.409 29.194 88 36.786 88 46.117 s -7.591 16.922 -16.922 16.922 H 56.32 c -6.793 0 -12.32 5.527 -12.32 12.32 v 6.266 l -7.082 -7.081 c -0.391 -0.391 -1.023 -0.391 -1.414 0 s -0.391 1.023 0 1.414 l 8.788 8.787 c 0.092 0.093 0.203 0.166 0.326 0.217 c 0.122 0.051 0.252 0.077 0.382 0.077 s 0.26 -0.027 0.382 -0.077 c 0.123 -0.051 0.233 -0.124 0.326 -0.217 l 8.787 -8.787 c 0.391 -0.391 0.391 -1.023 0 -1.414 s -1.023 -0.391 -1.414 0 L 46 81.625 v -6.266 c 0 -5.69 4.63 -10.32 10.32 -10.32 h 14.758 C 81.512 65.039 90 56.551 90 46.116 C 90 35.683 81.512 27.194 71.078 27.194 z" style="stroke: none; stroke-width: 1; stroke-dasharray: none; stroke-linecap: butt; stroke-linejoin: miter; stroke-miterlimit: 10; fill: rgb(0,0,0); fill-rule: nonzero; opacity: 1;" transform=" matrix(1 0 0 1 0 0) " stroke-linecap="round" />
</g>
</svg>