<svg xmlns="http://www.w3.org/2000/svg" version="1.1" xmlns:xlink="http://www.w3.org/1999/xlink" xmlns:svgjs="http://svgjs.dev/svgjs" width="2000" height="343" viewBox="0 0 2000 343"><g transform="matrix(1,0,0,1,-1.2121212121212466,0.44949108598271437)"><svg viewBox="0 0 396 68" data-background-color="#97978d" preserveAspectRatio="xMidYMid meet" height="343" width="2000" xmlns="http://www.w3.org/2000/svg" xmlns:xlink="http://www.w3.org/1999/xlink"><g id="tight-bounds" transform="matrix(1,0,0,1,0.2400000000000091,-0.08911193541348439)"><svg viewBox="0 0 395.52 68.17822387082695" height="68.17822387082695" width="395.52"><g><svg viewBox="0 0 395.52 68.17822387082695" height="68.17822387082695" width="395.52"><g><svg viewBox="0 0 395.52 68.17822387082695" height="68.17822387082695" width="395.52"><g id="textblocktransform"><svg viewBox="0 0 395.52 68.17822387082695" height="68.17822387082695" width="395.52" id="textblock"><g><svg viewBox="0 0 395.52 68.17822387082695" height="68.17822387082695" width="395.52"><g transform="matrix(1,0,0,1,0,0)"><svg width="395.52" viewBox="0.25 -32.75 229.12 39.5" height="68.17822387082695" data-palette-color="#ffffff"><path d="M10 4.5L10 4.5Q9.25 4.5 8.72 4.05 8.2 3.6 8.2 2.95L8.2 2.95Q8.2 2.6 8.35 2.3L8.35 2.3Q9.65-0.85 12.85-5.9L12.85-5.9 14.4-8.35Q17.4-13.05 19.78-17.07 22.15-21.1 23.55-24.23 24.95-27.35 24.95-29.25L24.95-29.25Q24.95-31.35 23-31.35L23-31.35Q21.95-31.35 20.35-30.75L20.35-30.75Q18.75-30.1 16.93-29.1 15.1-28.1 13.05-26.65L13.05-26.65Q10.35-24.75 8-22.48 5.65-20.2 4.08-17.82 2.5-15.45 2-13.25L2-13.25Q1.8-12.4 1.8-11.4L1.8-11.4Q1.8-7.55 6.3-7.55L6.3-7.55Q6.65-7.55 7.68-7.83 8.7-8.1 9.75-8.45 10.8-8.8 11.1-8.95L11.1-8.95Q11.4-9.1 11.55-9.1L11.55-9.1Q11.85-9.1 11.85-8.8L11.85-8.8Q11.85-8.35 11.1-8L11.1-8Q10.7-7.8 9.7-7.5 8.7-7.2 7.73-6.95 6.75-6.7 6.3-6.7L6.3-6.7Q3.3-6.75 1.78-7.75 0.25-8.75 0.25-11.1L0.25-11.1Q0.25-11.5 0.33-12.05 0.4-12.6 0.5-13.25L0.5-13.25Q1.4-17.5 5.15-21.7L5.15-21.7Q7.65-24.5 10.7-26.75 13.75-29 16.93-30.53 20.1-32.05 22.9-32.6L22.9-32.6Q23.8-32.75 24.45-32.75L24.45-32.75Q27.3-32.75 27.3-30L27.3-30Q27.3-29.05 27-27.9L27-27.9Q26.5-25.8 25.53-23.78 24.55-21.75 23.13-19.5 21.7-17.25 19.8-14.35L19.8-14.35 16.95-10Q16.9-9.9 16.98-9.8 17.05-9.7 17.15-9.8L17.15-9.8Q17.95-10.65 19.45-12.08 20.95-13.5 23.25-15.5L23.25-15.5Q25.45-17.45 27.7-19.25 29.95-21.05 31.98-22.48 34-23.9 35.6-24.73 37.2-25.55 38.1-25.55L38.1-25.55Q40.05-25.55 40.05-23.55L40.05-23.55Q40.05-22.1 38.9-19.9L38.9-19.9Q37.8-17.9 36.73-15.88 35.65-13.85 34.65-11.85L34.65-11.85 34.6-11.85Q31-4.75 30.55-2.45L30.55-2.45Q30.45-1.9 30.4-1.48 30.35-1.05 30.35-0.75L30.35-0.75Q30.35 0.15 30.63 0.7 30.9 1.25 31.55 1.25L31.55 1.25Q32.2 1.25 33.4 0.73 34.6 0.2 35.7-0.65L35.7-0.65Q36.7-1.4 37.05-1.4L37.05-1.4Q37.25-1.4 37.25-1.25L37.25-1.25Q37.25-1.1 37.1-0.85L37.1-0.85Q36.75-0.25 35.9 0.35L35.9 0.35Q34.3 1.5 33.18 2.13 32.05 2.75 31.3 2.75L31.3 2.75Q29.9 2.75 29.03 1.85 28.15 0.95 28.15-0.7L28.15-0.7Q28.15-0.9 28.2-1.3 28.25-1.7 28.35-2.3L28.35-2.3Q28.7-3.95 29.78-6.5 30.85-9.05 32.48-12.3 34.1-15.55 36-19.2L36-19.2Q36.8-20.75 36.8-21.45L36.8-21.45Q36.8-22.25 36-22.25L36-22.25Q35.3-22.25 34.13-21.73 32.95-21.2 31.63-20.4 30.3-19.6 29.05-18.75 27.8-17.9 26.95-17.25L26.95-17.25Q24.85-15.6 22.48-13.25 20.1-10.9 17.88-8.3 15.65-5.7 13.95-3.1L13.95-3.1Q13.9-3 13.85-2.73 13.8-2.45 13.75-2.05L13.75-2.05Q13.7-1 13.53-0.2 13.35 0.6 12.85 1.5L12.85 1.5Q12.5 2.15 12.25 2.63 12 3.1 11.8 3.35L11.8 3.35Q11.1 4.5 10 4.5ZM44 1.35L44 1.35Q43.9 1.35 43.8 1.33 43.7 1.3 43.6 1.25L43.6 1.25Q42.9 0.9 42.7 0.25 42.5-0.4 42.6-1.4L42.6-1.4Q42.7-1.8 42.82-2.8 42.95-3.8 43.15-4.4L43.15-4.4 40.6-1.95 39.2-0.6Q37.75 0.85 36.8 0.85L36.8 0.85Q36.4 0.85 36.15 0.55L36.15 0.55Q35.7 0 35.7-0.8L35.7-0.8Q35.7-1.85 36.25-3.05 36.8-4.25 37.55-5.38 38.3-6.5 38.9-7.25L38.9-7.25Q40.4-9.1 41.82-10.15 43.25-11.2 44.8-11.2L44.8-11.2Q45.65-11.2 46.47-10.9 47.3-10.6 48-9.9L48-9.9 48.05-9.85Q48.05-9.7 47.8-9.55L47.8-9.55Q47.7-9.45 47.62-9.4 47.55-9.35 47.5-9.3L47.5-9.3Q46.9-8.7 46.15-7.3 45.4-5.9 44.85-4.38 44.3-2.85 44.3-1.75L44.3-1.75Q44.3-0.75 44.8-0.4L44.8-0.4Q45.05-0.25 45.35-0.25L45.35-0.25Q46-0.25 47.15-1.05L47.15-1.05Q47.2-1.1 47.37-1.23 47.55-1.35 47.9-1.6L47.9-1.6Q48.3-1.9 48.55-1.9L48.55-1.9Q48.8-1.9 48.8-1.7L48.8-1.7Q48.8-1.4 48.4-1L48.4-1Q48.1-0.75 47.72-0.45 47.35-0.15 46.85 0.15L46.85 0.15Q46.1 0.7 45.3 1.03 44.5 1.35 44 1.35ZM38.35-1.85L38.35-1.85Q39.4-1.85 42.25-4.95L42.25-4.95Q43-5.8 43.6-6.58 44.2-7.35 44.7-8.1L44.7-8.1Q45.6-9.55 45.3-10.1L45.3-10.1Q45.15-10.4 44.7-10.4L44.7-10.4Q44.15-10.4 43.2-9.83 42.25-9.25 41.27-8.35 40.3-7.45 39.5-6.55L39.5-6.55Q38.95-5.85 38.4-4.6 37.85-3.35 37.85-2.55L37.85-2.55Q37.85-1.85 38.35-1.85ZM49.4 2.1L49.4 2.1Q48.6 2.1 48 1.95L48 1.95Q47.45 1.8 47.45 1.55L47.45 1.55Q47.45 1.15 48.25 1.1L48.25 1.1Q49 1.05 49.25 0.95L49.25 0.95Q49.7 0.85 50.3 0.8L50.3 0.8Q50.85 0.7 51.2 0.65L51.2 0.65Q53.6-0.05 53.6-1.5L53.6-1.5Q53.6-2.5 52.55-4.05L52.55-4.05Q51.9-5 51.9-6.15L51.9-6.15Q51.9-7.55 52.77-8.9 53.65-10.25 54.97-11.28 56.3-12.3 57.65-12.65L57.65-12.65Q58.25-12.8 58.9-12.8L58.9-12.8Q59.95-12.8 60.4-12.3L60.4-12.3Q60.7-12 60.7-11L60.7-11Q60.7-10.25 60.45-9.47 60.2-8.7 59.75-8.2L59.75-8.2Q59.5-7.95 59.35-7.95L59.35-7.95Q59.1-7.95 59.1-8.65L59.1-8.65 59.15-9.65Q59.2-10.05 59.22-10.35 59.25-10.65 59.25-10.85L59.25-10.85Q59.25-11.7 58.9-11.85L58.9-11.85Q58.5-11.95 58.35-11.95L58.35-11.95Q57.3-11.95 56.1-11 54.9-10.05 54.15-8.8L54.15-8.8Q53.85-8.35 53.85-7.7L53.85-7.7Q53.85-6.9 54.27-5.83 54.7-4.75 54.9-4.25L54.9-4.25Q55.4-3.15 55.67-2.35 55.95-1.55 55.95-0.95L55.95-0.95Q55.95-0.65 55.9-0.5L55.9-0.5Q56.15-0.6 57.1-0.8L57.1-0.8Q57.95-1 58.55-1L58.55-1Q58.9-1 58.9-0.85L58.9-0.85Q58.9-0.8 58.6-0.5L58.6-0.5Q58.45-0.35 57.67-0.03 56.9 0.3 55.87 0.65 54.85 1 53.85 1.3 52.85 1.6 52.15 1.75L52.15 1.75Q50.95 2.1 49.4 2.1ZM60.09 2.95L59.94 2.95Q58.89 2.95 59.04 1.9L59.04 1.9Q59.34 0 60.09-1.9L60.09-1.9Q60.49-2.9 61.12-4.2 61.74-5.5 62.59-7.1L62.59-7.1Q63.04-7.95 63.37-8.6 63.69-9.25 63.89-9.65L63.89-9.65Q64.24-10.35 64.62-11.15 64.99-11.95 65.39-12.9L65.39-12.9Q67.29-17.05 68.67-19.43 70.04-21.8 71.64-22.8L71.64-22.8Q71.74-22.9 72.19-22.83 72.64-22.75 73.07-22.6 73.49-22.45 73.59-22.25L73.59-22.25Q73.74-21.9 73.74-21.25L73.74-21.25Q73.74-19.25 71.89-16.45L71.89-16.45Q70.89-14.95 69.37-13.18 67.84-11.4 65.79-9.35L65.79-9.35 64.89-7.9Q63.39-5.5 62.57-3.8 61.74-2.1 61.94-0.8L61.94-0.8Q62.04-0.5 62.19-0.5L62.19-0.5Q62.34-0.5 62.69-0.75L62.69-0.75Q63.04-1 63.42-1.35 63.79-1.7 64.14-2.2L64.14-2.2Q64.39-2.45 64.57-2.75 64.74-3.05 64.94-3.3L64.94-3.3Q65.24-3.85 65.54-4.2L65.54-4.2Q66.49-5.8 67.14-6.45L67.14-6.45Q68.24-7.55 69.09-7.55L69.09-7.55Q70.09-7.55 70.87-6.48 71.64-5.4 72.54-3.4L72.54-3.4Q73.19-1.9 73.74-1.1L73.74-1.1Q74.29-0.35 74.79-0.35L74.79-0.35Q75.29-0.35 75.94-0.95L75.94-0.95Q76.54-1.5 76.99-1.55L76.99-1.55Q77.29-1.2 76.94-0.68 76.59-0.15 75.92 0.33 75.24 0.8 74.59 1.1 73.94 1.4 73.59 1.3L73.59 1.3Q72.19 0.9 71.42-0.13 70.64-1.15 69.89-2.8L69.89-2.8Q69.64-3.35 69.44-3.78 69.24-4.2 69.04-4.45L69.04-4.45Q68.69-4.95 68.09-4.95L68.09-4.95Q67.64-4.95 67.04-4.5L67.04-4.5Q66.44-4 65.84-3.33 65.24-2.65 64.69-1.7L64.69-1.7Q64.34-1.2 64.17-0.93 63.99-0.65 63.89-0.55L63.89-0.55Q63.64-0.2 63.12 0.48 62.59 1.15 61.89 2.15L61.89 2.15Q61.64 2.45 61.12 2.7 60.59 2.95 60.09 2.95L60.09 2.95ZM66.04-11.4L66.04-11.4Q66.19-11.3 66.79-11.88 67.39-12.45 68.17-13.38 68.94-14.3 69.72-15.33 70.49-16.35 70.94-17.15L70.94-17.15Q72.49-19.8 72.49-20.65L72.49-20.65Q72.49-21 72.24-21.15L72.24-21.15Q71.74-21.55 70.89-20.73 70.04-19.9 69.19-18.57 68.34-17.25 67.74-15.95L67.74-15.95Q67.39-15.15 67.02-14.15 66.64-13.15 66.39-12.38 66.14-11.6 66.04-11.4ZM85.94 1.35L85.94 1.35Q85.84 1.35 85.74 1.33 85.64 1.3 85.54 1.25L85.54 1.25Q84.84 0.9 84.64 0.25 84.44-0.4 84.54-1.4L84.54-1.4Q84.64-1.8 84.77-2.8 84.89-3.8 85.09-4.4L85.09-4.4 82.54-1.95 81.14-0.6Q79.69 0.85 78.74 0.85L78.74 0.85Q78.34 0.85 78.09 0.55L78.09 0.55Q77.64 0 77.64-0.8L77.64-0.8Q77.64-1.85 78.19-3.05 78.74-4.25 79.49-5.38 80.24-6.5 80.84-7.25L80.84-7.25Q82.34-9.1 83.77-10.15 85.19-11.2 86.74-11.2L86.74-11.2Q87.59-11.2 88.42-10.9 89.24-10.6 89.94-9.9L89.94-9.9 89.99-9.85Q89.99-9.7 89.74-9.55L89.74-9.55Q89.64-9.45 89.57-9.4 89.49-9.35 89.44-9.3L89.44-9.3Q88.84-8.7 88.09-7.3 87.34-5.9 86.79-4.38 86.24-2.85 86.24-1.75L86.24-1.75Q86.24-0.75 86.74-0.4L86.74-0.4Q86.99-0.25 87.29-0.25L87.29-0.25Q87.94-0.25 89.09-1.05L89.09-1.05Q89.14-1.1 89.32-1.23 89.49-1.35 89.84-1.6L89.84-1.6Q90.24-1.9 90.49-1.9L90.49-1.9Q90.74-1.9 90.74-1.7L90.74-1.7Q90.74-1.4 90.34-1L90.34-1Q90.04-0.75 89.67-0.45 89.29-0.15 88.79 0.15L88.79 0.15Q88.04 0.7 87.24 1.03 86.44 1.35 85.94 1.35ZM80.29-1.85L80.29-1.85Q81.34-1.85 84.19-4.95L84.19-4.95Q84.94-5.8 85.54-6.58 86.14-7.35 86.64-8.1L86.64-8.1Q87.54-9.55 87.24-10.1L87.24-10.1Q87.09-10.4 86.64-10.4L86.64-10.4Q86.09-10.4 85.14-9.83 84.19-9.25 83.22-8.35 82.24-7.45 81.44-6.55L81.44-6.55Q80.89-5.85 80.34-4.6 79.79-3.35 79.79-2.55L79.79-2.55Q79.79-1.85 80.29-1.85ZM100.54 1.35L100.54 1.35Q100.44 1.35 100.34 1.33 100.24 1.3 100.14 1.25L100.14 1.25Q99.44 0.9 99.24 0.25 99.04-0.4 99.14-1.4L99.14-1.4Q99.24-1.8 99.36-2.8 99.49-3.8 99.69-4.4L99.69-4.4 97.14-1.95 95.74-0.6Q94.29 0.85 93.34 0.85L93.34 0.85Q92.94 0.85 92.69 0.55L92.69 0.55Q92.24 0 92.24-0.8L92.24-0.8Q92.24-1.85 92.79-3.05 93.34-4.25 94.09-5.38 94.84-6.5 95.44-7.25L95.44-7.25Q96.94-9.1 98.36-10.15 99.79-11.2 101.34-11.2L101.34-11.2Q102.19-11.2 103.01-10.9 103.84-10.6 104.54-9.9L104.54-9.9 104.59-9.85Q104.59-9.7 104.34-9.55L104.34-9.55Q104.24-9.45 104.16-9.4 104.09-9.35 104.04-9.3L104.04-9.3Q103.44-8.7 102.69-7.3 101.94-5.9 101.39-4.38 100.84-2.85 100.84-1.75L100.84-1.75Q100.84-0.75 101.34-0.4L101.34-0.4Q101.59-0.25 101.89-0.25L101.89-0.25Q102.54-0.25 103.69-1.05L103.69-1.05Q103.74-1.1 103.91-1.23 104.09-1.35 104.44-1.6L104.44-1.6Q104.84-1.9 105.09-1.9L105.09-1.9Q105.34-1.9 105.34-1.7L105.34-1.7Q105.34-1.4 104.94-1L104.94-1Q104.64-0.75 104.26-0.45 103.89-0.15 103.39 0.15L103.39 0.15Q102.64 0.7 101.84 1.03 101.04 1.35 100.54 1.35ZM94.89-1.85L94.89-1.85Q95.94-1.85 98.79-4.95L98.79-4.95Q99.54-5.8 100.14-6.58 100.74-7.35 101.24-8.1L101.24-8.1Q102.14-9.55 101.84-10.1L101.84-10.1Q101.69-10.4 101.24-10.4L101.24-10.4Q100.69-10.4 99.74-9.83 98.79-9.25 97.81-8.35 96.84-7.45 96.04-6.55L96.04-6.55Q95.49-5.85 94.94-4.6 94.39-3.35 94.39-2.55L94.39-2.55Q94.39-1.85 94.89-1.85ZM105.44 4.65L105.44 4.65Q105.19 4.65 105.19 4.2L105.19 4.2Q105.19 4.1 105.21 3.93 105.24 3.75 105.29 3.55L105.29 3.55 107.44-1.85 109.99-8.15Q109.39-8.2 108.24-8.13 107.09-8.05 106.29-7.9L106.29-7.9Q105.99-7.85 105.81-7.83 105.64-7.8 105.54-7.8L105.54-7.8Q105.14-7.8 104.99-8.15L104.99-8.15Q105.04-8.45 105.54-8.7L105.54-8.7Q105.79-8.8 106.14-8.88 106.49-8.95 106.99-9.05L106.99-9.05Q107.54-9.15 107.96-9.2 108.39-9.25 108.59-9.3L108.59-9.3Q108.84-9.35 109.09-9.4 109.34-9.45 109.69-9.5L109.69-9.5Q109.99-9.55 110.34-9.6 110.69-9.65 111.09-9.75L111.09-9.75Q111.49-10.3 112.29-11.7 113.09-13.1 114.34-15.4L114.34-15.4Q115.34-17.25 115.96-18.32 116.59-19.4 116.84-19.75L116.84-19.75Q117.29-20.35 117.89-20.35L117.89-20.35Q118.19-20.35 118.19-20.1L118.19-20.1Q118.19-20.05 117.94-19.45L117.94-19.45Q117.64-18.95 116.94-17.6 116.24-16.25 115.44-14.65 114.64-13.05 113.99-11.65 113.34-10.25 113.09-9.6L113.09-9.6Q113.34-9.65 113.66-9.65 113.99-9.65 114.49-9.65L114.49-9.65Q115.04-9.65 115.51-9.63 115.99-9.6 116.34-9.55L116.34-9.55Q117.04-9.4 117.04-9.15L117.04-9.15Q117.04-9.05 116.59-8.8L116.59-8.8Q116.34-8.7 115.64-8.6 114.94-8.5 113.79-8.4L113.79-8.4Q113.49-8.4 113.14-8.38 112.79-8.35 112.39-8.3L112.39-8.3Q110.89-5.85 108.29-0.15L108.29-0.15Q107.34 1.75 106.84 2.8 106.34 3.85 106.24 4.05L106.24 4.05Q105.79 4.65 105.44 4.65ZM120.58 6.75L120.58 6.75Q120.23 6.75 119.93 6.6L119.93 6.6Q119.23 6.15 119.23 5.35L119.23 5.35Q119.23 5 119.38 4.7L119.38 4.7Q119.68 4.1 120.73 3.2 121.78 2.3 122.98 1.6L122.98 1.6Q123.48 0.95 123.78 0.4 124.08-0.15 124.23-0.55L124.23-0.55Q125.38-2.65 126.58-4.45 127.78-6.25 128.98-7.8L128.98-7.8Q127.78-8.65 127.78-10.2L127.78-10.2Q127.78-11.5 128.43-12.85L128.43-12.85Q128.83-13.7 129.13-13.9L129.13-13.9Q129.48-14.1 129.58-14L129.58-14Q129.68-14 129.68-13.6L129.68-13.6Q129.68-13.25 129.43-12.65L129.43-12.65Q129.23-12.3 129.23-11.7L129.23-11.7Q129.23-10.45 130.38-9.6L130.38-9.6Q131.18-10.55 131.83-11.5L131.83-11.5Q133.83-14.1 135.63-16.32 137.43-18.55 139.13-20.45L139.13-20.45Q141.33-22.95 143.93-25.2 146.53-27.45 149.23-28.85 151.93-30.25 154.43-30.25L154.43-30.25Q156.23-30.25 157.31-29.55 158.38-28.85 158.38-27.5L158.38-27.5Q158.38-26.4 157.53-24.85L157.53-24.85Q156.63-23.3 155.11-21.45 153.58-19.6 151.38-17.45L151.38-17.45Q148.48-14.55 145.21-12.13 141.93-9.7 138.76-8.22 135.58-6.75 132.93-6.75L132.93-6.75Q131.33-6.75 130.28-7.25L130.28-7.25Q129.03-5.65 127.93-4.03 126.83-2.4 125.88-0.8L125.88-0.8Q125.83-0.45 125.18 0.6L125.18 0.6Q127.58-0.7 130.98-1.55 134.38-2.4 138.11-2.85 141.83-3.3 145.08-3.25L145.08-3.25Q147.13-3.25 148.21-2.27 149.28-1.3 149.28 0L149.28 0Q149.28 0.15 149.26 0.35 149.23 0.55 149.18 0.8L149.18 0.8Q149.13 1.6 148.81 2.23 148.48 2.85 148.08 2.85L148.08 2.85Q147.53 2.85 147.38 1.35L147.38 1.35Q147.03 0.05 146.43-0.6 145.83-1.25 144.13-1.25L144.13-1.25Q132.23-1.15 124.08 3.25L124.08 3.25Q123.68 4.05 123.28 4.65 122.88 5.25 122.53 5.65L122.53 5.65Q121.58 6.75 120.58 6.75ZM133.83-8.7L133.83-8.7Q137.63-8.7 142.13-11.4L142.13-11.4Q145.13-13.2 147.86-15.58 150.58-17.95 152.76-20.5 154.93-23.05 156.18-25.25L156.18-25.25Q156.98-26.65 156.98-27.5L156.98-27.5Q156.98-28.6 155.53-28.6L155.53-28.6Q155.03-28.6 154.33-28.45L154.33-28.45Q151.13-27.8 146.73-24.3L146.73-24.3Q143.83-22 141.06-19.33 138.28-16.65 135.86-13.98 133.43-11.3 131.58-9L131.58-9Q132.73-8.7 133.83-8.7ZM159.93 1.35L159.93 1.35Q159.83 1.35 159.73 1.33 159.63 1.3 159.53 1.25L159.53 1.25Q158.83 0.9 158.63 0.25 158.43-0.4 158.53-1.4L158.53-1.4Q158.63-1.8 158.75-2.8 158.88-3.8 159.08-4.4L159.08-4.4 156.53-1.95 155.13-0.6Q153.68 0.85 152.73 0.85L152.73 0.85Q152.33 0.85 152.08 0.55L152.08 0.55Q151.63 0 151.63-0.8L151.63-0.8Q151.63-1.85 152.18-3.05 152.73-4.25 153.48-5.38 154.23-6.5 154.83-7.25L154.83-7.25Q156.33-9.1 157.75-10.15 159.18-11.2 160.73-11.2L160.73-11.2Q161.58-11.2 162.4-10.9 163.23-10.6 163.93-9.9L163.93-9.9 163.98-9.85Q163.98-9.7 163.73-9.55L163.73-9.55Q163.63-9.45 163.55-9.4 163.48-9.35 163.43-9.3L163.43-9.3Q162.83-8.7 162.08-7.3 161.33-5.9 160.78-4.38 160.23-2.85 160.23-1.75L160.23-1.75Q160.23-0.75 160.73-0.4L160.73-0.4Q160.98-0.25 161.28-0.25L161.28-0.25Q161.93-0.25 163.08-1.05L163.08-1.05Q163.13-1.1 163.3-1.23 163.48-1.35 163.83-1.6L163.83-1.6Q164.23-1.9 164.48-1.9L164.48-1.9Q164.73-1.9 164.73-1.7L164.73-1.7Q164.73-1.4 164.33-1L164.33-1Q164.03-0.75 163.65-0.45 163.28-0.15 162.78 0.15L162.78 0.15Q162.03 0.7 161.23 1.03 160.43 1.35 159.93 1.35ZM154.28-1.85L154.28-1.85Q155.33-1.85 158.18-4.95L158.18-4.95Q158.93-5.8 159.53-6.58 160.13-7.35 160.63-8.1L160.63-8.1Q161.53-9.55 161.23-10.1L161.23-10.1Q161.08-10.4 160.63-10.4L160.63-10.4Q160.08-10.4 159.13-9.83 158.18-9.25 157.2-8.35 156.23-7.45 155.43-6.55L155.43-6.55Q154.88-5.85 154.33-4.6 153.78-3.35 153.78-2.55L153.78-2.55Q153.78-1.85 154.28-1.85ZM164.83 4.65L164.83 4.65Q164.58 4.65 164.58 4.2L164.58 4.2Q164.58 4.1 164.6 3.93 164.63 3.75 164.68 3.55L164.68 3.55 166.83-1.85 169.38-8.15Q168.78-8.2 167.63-8.13 166.48-8.05 165.68-7.9L165.68-7.9Q165.38-7.85 165.2-7.83 165.03-7.8 164.93-7.8L164.93-7.8Q164.53-7.8 164.38-8.15L164.38-8.15Q164.43-8.45 164.93-8.7L164.93-8.7Q165.18-8.8 165.53-8.88 165.88-8.95 166.38-9.05L166.38-9.05Q166.93-9.15 167.35-9.2 167.78-9.25 167.98-9.3L167.98-9.3Q168.23-9.35 168.48-9.4 168.73-9.45 169.08-9.5L169.08-9.5Q169.38-9.55 169.73-9.6 170.08-9.65 170.48-9.75L170.48-9.75Q170.88-10.3 171.68-11.7 172.48-13.1 173.73-15.4L173.73-15.4Q174.73-17.25 175.35-18.32 175.98-19.4 176.23-19.75L176.23-19.75Q176.68-20.35 177.28-20.35L177.28-20.35Q177.58-20.35 177.58-20.1L177.58-20.1Q177.58-20.05 177.33-19.45L177.33-19.45Q177.03-18.95 176.33-17.6 175.63-16.25 174.83-14.65 174.03-13.05 173.38-11.65 172.73-10.25 172.48-9.6L172.48-9.6Q172.73-9.65 173.05-9.65 173.38-9.65 173.88-9.65L173.88-9.65Q174.43-9.65 174.9-9.63 175.38-9.6 175.73-9.55L175.73-9.55Q176.43-9.4 176.43-9.15L176.43-9.15Q176.43-9.05 175.98-8.8L175.98-8.8Q175.73-8.7 175.03-8.6 174.33-8.5 173.18-8.4L173.18-8.4Q172.88-8.4 172.53-8.38 172.18-8.35 171.78-8.3L171.78-8.3Q170.28-5.85 167.68-0.15L167.68-0.15Q166.73 1.75 166.23 2.8 165.73 3.85 165.63 4.05L165.63 4.05Q165.18 4.65 164.83 4.65ZM174.92 4.65L174.92 4.65Q174.67 4.65 174.67 4.2L174.67 4.2Q174.67 4.1 174.7 3.93 174.72 3.75 174.77 3.55L174.77 3.55 176.92-1.85 179.47-8.15Q178.87-8.2 177.72-8.13 176.57-8.05 175.77-7.9L175.77-7.9Q175.47-7.85 175.3-7.83 175.12-7.8 175.02-7.8L175.02-7.8Q174.62-7.8 174.47-8.15L174.47-8.15Q174.52-8.45 175.02-8.7L175.02-8.7Q175.27-8.8 175.62-8.88 175.97-8.95 176.47-9.05L176.47-9.05Q177.02-9.15 177.45-9.2 177.87-9.25 178.07-9.3L178.07-9.3Q178.32-9.35 178.57-9.4 178.82-9.45 179.17-9.5L179.17-9.5Q179.47-9.55 179.82-9.6 180.17-9.65 180.57-9.75L180.57-9.75Q180.97-10.3 181.77-11.7 182.57-13.1 183.82-15.4L183.82-15.4Q184.82-17.25 185.45-18.32 186.07-19.4 186.32-19.75L186.32-19.75Q186.77-20.35 187.37-20.35L187.37-20.35Q187.67-20.35 187.67-20.1L187.67-20.1Q187.67-20.05 187.42-19.45L187.42-19.45Q187.12-18.95 186.42-17.6 185.72-16.25 184.92-14.65 184.12-13.05 183.47-11.65 182.82-10.25 182.57-9.6L182.57-9.6Q182.82-9.65 183.15-9.65 183.47-9.65 183.97-9.65L183.97-9.65Q184.52-9.65 185-9.63 185.47-9.6 185.82-9.55L185.82-9.55Q186.52-9.4 186.52-9.15L186.52-9.15Q186.52-9.05 186.07-8.8L186.07-8.8Q185.82-8.7 185.12-8.6 184.42-8.5 183.27-8.4L183.27-8.4Q182.97-8.4 182.62-8.38 182.27-8.35 181.87-8.3L181.87-8.3Q180.37-5.85 177.77-0.15L177.77-0.15Q176.82 1.75 176.32 2.8 175.82 3.85 175.72 4.05L175.72 4.05Q175.27 4.65 174.92 4.65ZM186.17 0.85L186.17 0.85Q184.22 0.85 184.22-0.9L184.22-0.9Q184.22-1 184.25-1.25 184.27-1.5 184.32-1.85L184.32-1.85Q184.82-3.9 186.34-5.83 187.87-7.75 189.87-9.2L189.87-9.2Q190.62-9.8 192.27-9.8L192.27-9.8Q193.22-9.8 193.94-9.53 194.67-9.25 194.97-8.7L194.97-8.7Q195.27-8.2 195.27-7.55L195.27-7.55Q195.27-7.45 195.25-7.25 195.22-7.05 195.17-6.8L195.17-6.8Q195.27-6.85 195.5-6.85 195.72-6.85 196.07-6.9L196.07-6.9Q196.42-6.95 196.75-7 197.07-7.05 197.42-7.05L197.42-7.05 197.62-7.05Q198.17-7.05 197.75-6.63 197.32-6.2 196.62-6.1L196.62-6.1 194.92-5.9Q194.42-4.5 193.19-3.1 191.97-1.7 190.5-0.68 189.02 0.35 187.72 0.65L187.72 0.65Q186.97 0.85 186.17 0.85ZM192.57-6.6L192.57-6.6Q192.87-6.6 193.3-6.63 193.72-6.65 194.27-6.7L194.27-6.7Q194.32-6.8 194.32-7.15L194.32-7.15Q194.32-8.05 193.57-8.4L193.57-8.4Q193.17-8.65 192.57-8.65L192.57-8.65Q191.82-8.65 191.05-8.18 190.27-7.7 189.42-6.95L189.42-6.95Q190.47-6.6 192.57-6.6ZM187.67-0.9L187.67-0.9Q188.17-0.9 189.09-1.38 190.02-1.85 191.02-2.65 192.02-3.45 192.82-4.35L192.82-4.35Q193.07-4.6 193.32-4.98 193.57-5.35 193.87-5.75L193.87-5.75 192.67-5.6Q189.87-5.2 187.67-5.15L187.67-5.15Q186.57-3.35 186.32-2.15L186.32-2.15Q186.27-1.5 186.67-1.2 187.07-0.9 187.67-0.9ZM205.62 1.45L205.62 1.45Q204.32 1.45 204.32-0.45L204.32-0.45Q204.32-2.4 205.67-6.2L205.67-6.2Q204.07-4.15 202.49-2.58 200.92-1 199.37 0L199.37 0Q198.27 0.8 197.37 0.8L197.37 0.8Q196.17 0.8 196.17-0.85L196.17-0.85Q196.17-1.75 196.47-2.5L196.47-2.5Q196.87-3.6 197.64-5.05 198.42-6.5 199.47-7.95 200.52-9.4 201.62-10.4L201.62-10.4Q202.02-10.65 202.12-10.65L202.12-10.65Q202.47-10.65 202.47-10.25L202.47-10.25Q202.47-10.1 202.32-9.85L202.32-9.85Q201.87-9.35 201.27-8.4 200.67-7.45 200.12-6.35 199.57-5.25 199.19-4.33 198.82-3.4 198.82-2.95L198.82-2.95Q198.82-2.05 199.62-2.05L199.62-2.05Q199.97-2.05 200.37-2.3L200.37-2.3Q202.22-3.45 203.77-5.08 205.32-6.7 206.67-9.5L206.67-9.5Q207.12-9.8 207.67-9.8L207.67-9.8Q208.22-9.8 208.59-9.45 208.97-9.1 208.97-8.5L208.97-8.5Q208.97-8.05 208.72-7.45L208.72-7.45Q208.67-7.25 208.54-7.05 208.42-6.85 208.27-6.6L208.27-6.6Q208.12-6.35 208.02-6.13 207.92-5.9 207.82-5.75L207.82-5.75Q206.87-4.05 206.34-2.9 205.82-1.75 205.82-0.9L205.82-0.9Q205.82 0.1 206.72 0.1L206.72 0.1Q207.52 0.1 208.32-0.5L208.32-0.5Q208.82-0.85 209.17-0.85L209.17-0.85Q209.72-0.85 208.94-0.18 208.17 0.5 207.07 1.05L207.07 1.05Q206.02 1.45 205.62 1.45ZM211.62 3.3L211.62 3.3Q211.07 3.3 210.69 2.95 210.32 2.6 210.37 2.1L210.37 2.1Q210.22 1.4 210.59 0.08 210.97-1.25 211.67-2.9 212.37-4.55 213.19-6.3 214.02-8.05 214.77-9.55L214.77-9.55 211.42-8.65 211.32-8.65Q210.97-8.65 210.97-9L210.97-9Q210.97-9.5 211.39-10.18 211.82-10.85 212.32-11L212.32-11Q212.82-11.2 213.72-11.35 214.62-11.5 215.97-11.7L215.97-11.7Q224.47-25.95 226.72-26.15L226.72-26.15Q229.37-26.45 229.37-22.8L229.37-22.8Q229.37-22.35 229.29-21.73 229.22-21.1 229.12-20.25L229.12-20.25Q229.07-19.75 228.77-19.75L228.77-19.75Q228.57-19.75 228.44-20.05 228.32-20.35 228.42-20.8L228.42-20.8Q228.57-21.7 228.57-22.3L228.57-22.3Q228.57-24.25 227.42-24.25L227.42-24.25Q226.27-24.25 223.77-20.65L223.77-20.65Q222.52-18.8 221.09-16.63 219.67-14.45 218.12-11.95L218.12-11.95Q218.57-12 219.02-12.03 219.47-12.05 219.87-12.05L219.87-12.05Q220.32-12.05 220.89-12.08 221.47-12.1 222.12-12.15L222.12-12.15Q222.52-12.45 222.87-12.45L222.87-12.45Q223.52-12.45 223.52-11.75L223.52-11.75Q223.52-11 222.67-11L222.67-11Q222.42-11 221.97-11.15L221.97-11.15Q220.67-11.05 219.97-10.93 219.27-10.8 218.67-10.63 218.07-10.45 217.07-10.2L217.07-10.2Q215.82-8.15 214.72-6.13 213.62-4.1 212.89-2.4 212.17-0.7 212.17 0.4L212.17 0.4Q212.17 1.4 212.97 1.45L212.97 1.45Q213.67 1.15 213.97 1.15L213.97 1.15Q214.32 1.15 214.32 1.4L214.32 1.4Q214.32 1.85 213.27 2.65L213.27 2.65Q212.47 3.3 211.62 3.3Z" opacity="1" transform="matrix(1,0,0,1,0,0)" fill="#ffffff" class="wordmark-text-0" data-fill-palette-color="primary" id="text-0"></path></svg></g></svg></g></svg></g></svg></g><g></g></svg></g><defs></defs></svg><rect width="395.52" height="68.17822387082695" fill="none" stroke="none" visibility="hidden"></rect></g></svg></g></svg>